# xmcd
#
# Track frame offsets: 
#        150
#        13820
#        27335
#        42805
#        54865
#        69533
#        83848
#        98338
#        112415
#        125648
#        139253
#        154168
#        167325
#        181245
#
# Disc length: 2597 seconds
#
# Revision: 1
# Processed by: cddbd v1.5.2PL0 Copyright (c) Steve Scherf et al.
# Submitted via: ExactAudioCopy v0.99pb5
#
DISCID=b30a230e
DTITLE=Various Artist - Barrelhouse Blues 1927-1936
DYEAR=1992
DGENRE=Blues
TTITLE0=Cow Cow Davenport - State Street Jive
TTITLE1=Little Brother Montgomery - Vicksburg Blues No. 2
TTITLE2=Montana Taylor - Indiana Avenue Stomp
TTITLE3=Bob Call - Thirty-One Blues
TTITLE4=Lonnie Johnson - Sam, You're Just A Rat
TTITLE5=George Noble - Seminole Blues
TTITLE6=Joe Dean - I'm So Glad I'm Twenty-One Years Old Today
TTITLE7=Charley Taylor - Heavy Suitcase Blues
TTITLE8=Barrelhouse Welsh - Dying Pickpocket Blues
TTITLE9=Louise Johnson - On The Wall
TTITLE10=Jabo Williams - Polack Blues
TTITLE11=Jesse James - Ramrod
TTITLE12=Raymond Barrow - Walking Blues
TTITLE13=Will Ezell - Barrelhouse Woman (Take 2)
EXTD=
EXTT0=
EXTT1=
EXTT2=
EXTT3=
EXTT4=
EXTT5=
EXTT6=
EXTT7=
EXTT8=
EXTT9=
EXTT10=
EXTT11=
EXTT12=
EXTT13=
PLAYORDER=
